<svg width="126" height="26" viewBox="0 0 126 26" fill="none" xmlns="http://www.w3.org/2000/svg"><path d="M50.865 17.686a4.726 4.726 0 0 1-4.716-4.716 4.726 4.726 0 0 1 4.716-4.717 4.726 4.726 0 0 1 4.717 4.717V13c0 2.567-2.12 4.656-4.717 4.686zm0-12.716a7.969 7.969 0 0 0-7.97 7.97 7.969 7.969 0 0 0 7.97 7.97c4.388 0 7.97-3.552 7.97-7.94.03-4.388-3.492-7.97-7.88-8h-.09zm23.403.209h-2.12c-.268 0-.507.238-.536.507v7.015a.535.535 0 0 1-.538.537.494.494 0 0 1-.358-.149l-.746-.716-7.523-7.015c-.209-.21-.567-.21-.746 0a.55.55 0 0 0-.15.358v14.417c0 .3.24.538.538.538h2.15c.268 0 .507-.239.537-.507V13c0-.299.239-.538.537-.538.15 0 .299.06.388.15l4.597 4.477 3.463 3.433c.268.239.686.209.955-.06.12-.12.15-.268.15-.447V5.716c-.06-.299-.3-.537-.598-.537zm16.955 0h-2.358a.532.532 0 0 0-.477.298l-1.463 3.254-1.94 4.298a.548.548 0 0 1-.717.27.586.586 0 0 1-.269-.27l-1.94-4.328C81.283 7 80.597 5.447 80.597 5.447a.532.532 0 0 0-.478-.298H77.76a.535.535 0 0 0-.538.537c0 .06.03.15.06.21L78.597 8.7l5.432 11.702c.12.268.448.388.717.268a.587.587 0 0 0 .269-.268L90.477 8.7l1.314-2.806a.547.547 0 0 0-.27-.716h-.298zm22.478 0h-2.358a.533.533 0 0 0-.478.298s-.716 1.552-1.462 3.254l-1.941 4.298a.513.513 0 0 1-.686.27.585.585 0 0 1-.269-.27l-1.94-4.328-1.463-3.254a.533.533 0 0 0-.478-.298h-2.358a.535.535 0 0 0-.537.537c0 .06.03.15.06.21l1.313 2.805 5.433 11.702a.547.547 0 0 0 .716.268.587.587 0 0 0 .269-.268L112.985 8.7l1.313-2.806a.548.548 0 0 0-.269-.716c-.179 0-.268-.03-.328 0zM96.776 20.67a.535.535 0 0 0 .537-.537V5.686c0-.298-.239-.537-.508-.537h-2.149a.535.535 0 0 0-.537.537v14.448c0 .298.239.537.537.537h2.12zm23.134-5.074h-2.388a.534.534 0 0 1-.537-.538.43.43 0 0 1 .059-.209l1.194-2.597a.548.548 0 0 1 .717-.268c.119.06.209.149.268.268l1.194 2.597c.12.269 0 .568-.268.717-.06 0-.149.03-.239.03zm6.03 4.298l-.448-1.015-6.269-13.433a.511.511 0 0 0-.716-.238c-.119.06-.209.149-.239.238L112 18.88l-.478 1.045a.545.545 0 0 0 .239.716c.089.03.149.06.239.06h2c.388 0 .507-.12.656-.418l.627-1.373.09-.239c.089-.179.268-.328.477-.298h5.732a.53.53 0 0 1 .477.298l.12.239.627 1.373c.149.328.238.418.656.418h2a.535.535 0 0 0 .538-.537c0-.09-.03-.15-.06-.239v-.03zM32.09 12.85c0-1.224.447-2.418 1.283-3.343.836-.895 2-1.403 3.253-1.403 1.075 0 2.09.358 2.926 1.015a.55.55 0 0 0 .716-.06l1.314-1.373c.209-.209.179-.537-.03-.746l-.03-.03a7.185 7.185 0 0 0-5.015-1.82c-4.298 0-7.791 3.462-7.85 7.76v.12c.03 4.298 3.552 7.76 7.85 7.76a7.185 7.185 0 0 0 5.015-1.82c.239-.18.269-.507.06-.746 0 0 0-.03-.03-.03l-1.314-1.373c-.179-.21-.507-.21-.716-.06a4.705 4.705 0 0 1-2.925 1.015 4.471 4.471 0 0 1-3.254-1.403 4.985 4.985 0 0 1-1.284-3.343v-.12h.03zm-17.552-2.777c-.179-.328-.09-.746.239-.925l3.433-1.97c.179-.09.239-.329.149-.478-.03-.06-.09-.09-.15-.15l-6.775-3.94a.761.761 0 0 0-.717 0L3.941 6.55c-.179.09-.239.33-.12.508.03.06.09.09.12.12l3.433 1.97a.65.65 0 0 1 .239.925.65.65 0 0 1-.926.239L1.762 7.476a.756.756 0 0 1-.269-.985.59.59 0 0 1 .269-.269l8.955-5.164a.761.761 0 0 1 .717 0l8.955 5.164a.756.756 0 0 1 .268.986.586.586 0 0 1-.268.268l-4.925 2.836a.682.682 0 0 1-.926-.239z" fill="#fff"/><path d="M18.329 17.058l-6.21-3.582a.728.728 0 0 1-.357-.627V5.655c0-.388.328-.717.716-.717.12 0 .239.03.358.09l2.269 1.313a.65.65 0 0 1 .239.926.65.65 0 0 1-.926.239l-.776-.448c-.179-.09-.388-.03-.477.12a.418.418 0 0 0-.06.178v4.657c0 .269.15.508.358.627l4.597 2.686v-1.522c0-.388.299-.686.687-.686.388 0 .686.298.686.686v2.627c0 .388-.298.716-.686.716a.953.953 0 0 1-.418-.09z" fill="#8BC400"/><path d="M11.762 24.818v-5.672a.67.67 0 0 1 .686-.656c.388 0 .687.298.687.686v3.94c0 .21.15.359.358.359.06 0 .12-.03.18-.06l6.775-3.91a.728.728 0 0 0 .358-.627v-7.851a.345.345 0 0 0-.358-.358c-.06 0-.12.03-.179.06l-3.433 1.97a.682.682 0 0 1-.925-.24c-.18-.328-.09-.746.239-.925L21.075 8.7c.329-.21.776-.09.985.268.06.12.09.239.09.358v10.359c0 .268-.15.507-.358.627l-8.956 5.164c-.328.209-.776.09-.985-.269a.92.92 0 0 1-.09-.388z" fill="#fff"/><path d="M2.717 16.433v-2.627c0-.388.298-.687.686-.687.388 0 .687.299.687.687v1.522l4.567-2.656a.728.728 0 0 0 .358-.627V7.388a.345.345 0 0 0-.358-.358c-.06 0-.12.03-.179.06l-.776.447a.703.703 0 0 1-.925-.239c-.18-.328-.06-.746.238-.955L9.284 5.03c.328-.21.776-.09.985.239.06.119.12.238.12.388v7.194c0 .268-.15.507-.359.626L3.821 17.06c-.328.209-.776.09-.985-.24a.6.6 0 0 1-.12-.387z" fill="#8BC400"/><path d="M9.284 25.445L.358 20.28A.728.728 0 0 1 0 19.654V9.296a.726.726 0 0 1 1.075-.627l4.895 2.835a.65.65 0 0 1 .239.926.65.65 0 0 1-.925.239l-3.403-1.94c-.18-.09-.388-.03-.478.119-.06.06-.06.12-.06.179v7.85c0 .27.15.508.358.628l6.777 3.91c.179.09.388.03.477-.12.03-.06.06-.119.06-.179v-3.97c0-.388.298-.686.686-.686a.67.67 0 0 1 .687.656v5.672a.726.726 0 0 1-.716.716c-.12.06-.269 0-.388-.06z" fill="#fff"/><path d="M14.448 20.58a.703.703 0 0 1 .24-.925l.775-.448c.18-.09.24-.328.12-.477-.03-.06-.09-.09-.12-.12l-4.03-2.328a.761.761 0 0 0-.716 0l-4.03 2.328a.348.348 0 0 0-.149.478c.03.06.09.12.15.15l.775.447a.65.65 0 0 1 .24.925.65.65 0 0 1-.926.24l-2.269-1.314a.756.756 0 0 1-.269-.985c.06-.12.15-.21.27-.269l6.208-3.582a.761.761 0 0 1 .716 0l6.21 3.582a.756.756 0 0 1 .268.985.586.586 0 0 1-.269.269l-2.268 1.283a.703.703 0 0 1-.926-.238z" fill="#8BC400"/></svg>